<?xml version="1.0" encoding="UTF-8" standalone="no"?>
<svg
   xmlns:dc="http://purl.org/dc/elements/1.1/"
   xmlns:cc="http://creativecommons.org/ns#"
   xmlns:rdf="http://www.w3.org/1999/02/22-rdf-syntax-ns#"
   xmlns:svg="http://www.w3.org/2000/svg"
   xmlns="http://www.w3.org/2000/svg"
   width="1000"
   height="1000"
   viewBox="0 0 264.58333 264.58334"
   version="1.1"
   id="svg8">
  <metadata
     id="metadata20">
    <rdf:RDF>
      <cc:Work
         rdf:about="">
        <dc:format>image/svg+xml</dc:format>
        <dc:type
           rdf:resource="http://purl.org/dc/dcmitype/StillImage" />
        <dc:title></dc:title>
      </cc:Work>
    </rdf:RDF>
  </metadata>
  <defs
     id="defs18" />
  <g
     id="layer1"
     transform="translate(0,-32.41665)">
    <path
       transform="matrix(0,1.2811021,-1.2609617,0,339.98256,-4.7708125)"
       style="fill:#202020;fill-opacity:0;stroke:#00ff66;stroke-opacity:0;stroke-width:6.24512196;stroke-miterlimit:4;stroke-dasharray:none;stroke-linejoin:round;stroke-linecap:round"
       d="m 39.51272,164.70832 c 0,9.3478 6.710801,18.69561 20.132402,41.9425 26.843203,46.49379 18.960143,41.9425 72.646548,41.9425 53.68641,0 45.80335,4.55129 72.64655,-41.9425 26.8432,-46.49379 26.8432,-37.39122 0,-83.88501 -26.8432,-46.493793 -18.96014,-41.942507 -72.64655,-41.942507 -53.686404,0 -45.803343,-4.551286 -72.646548,41.942507 -13.421601,23.2469 -20.132402,32.5947 -20.132402,41.94251"
       id="path66" />
    <g
       aria-label="charodziej"
       id="text4688">
      <path
         style="opacity:1;fill:none;fill-opacity:1;stroke:#ffffff;stroke-width:2.11666668;stroke-linecap:round;stroke-linejoin:round;stroke-miterlimit:4"
         d="m 67.933594,159.89453 c -1.291833,-1.47001 -3.052929,-2.26562 -5.011719,-2.26562 -1.248223,0 -2.418802,0.31157 -3.421875,0.9414 l -0.0039,0.004 -0.0059,0.002 c -0.966434,0.62128 -1.736947,1.49242 -2.27539,2.54688 l -0.0039,0.008 -0.0039,0.008 c -0.522262,1.06723 -0.773437,2.27658 -0.773437,3.58399 0,1.30213 0.276707,2.51818 0.845703,3.58789 0.565487,1.06311 1.387578,1.93216 2.412109,2.54687 1.038365,0.62302 2.23867,0.92969 3.519532,0.92969 0.841332,0 1.632405,-0.10698 2.365234,-0.33594 l 0.0098,-0.004 0.0098,-0.002 c 0.760071,-0.25336 1.450058,-0.64574 2.039063,-1.16406"
         id="path902" />
      <path
         style="opacity:1;fill:none;fill-opacity:1;stroke:#ffffff;stroke-width:2.38125001;stroke-linecap:round;stroke-linejoin:round;stroke-miterlimit:4"
         d="m 74.541016,151.17969 v 20.33008 l -3.5e-5,-8.54874 c 0,-1.00178 0.290282,-1.96337 0.853515,-2.77149 0.548773,-0.78737 1.30124,-1.41207 2.195313,-1.84765 l 0.0059,-0.002 0.0039,-0.002 c 0.921374,-0.43765 1.945233,-0.65039 3.025391,-0.65039 1.118716,0 2.165609,0.2213 3.095703,0.68555 0.965678,0.47201 1.753484,1.21437 2.292969,2.15039 0.580865,0.97452 0.83789,2.15205 0.83789,3.47656 v 7.50977"
         id="path920" />
      <path
         style="opacity:1;fill:none;fill-opacity:1;stroke:#ffffff;stroke-width:2.11666668;stroke-linecap:round;stroke-linejoin:round;stroke-miterlimit:4"
         d="m 107.14467,165.45164 c -0.12388,1.16738 -0.60648,2.25664 -1.30859,3.22656 -0.6395,0.88342 -1.6439,1.63592 -2.69727,2.25391 -0.93718,0.54258 -1.99722,0.82031 -3.251952,0.82031 -1.323614,0 -2.45667,-0.30358 -3.470703,-0.90039 -1.029832,-0.62571 -1.830483,-1.44881 -2.44336,-2.51953 -0.585724,-1.05645 -0.882812,-2.23839 -0.882812,-3.60937 0,-1.38784 0.303703,-2.57371 0.904297,-3.62696 0.628574,-1.06845 1.451299,-1.88484 2.517578,-2.49414 l 0.0059,-0.002 0.0059,-0.004 c 1.055505,-0.6199 2.228932,-0.92968 3.593752,-0.92968 1.36481,0 2.52544,0.31117 3.55859,0.92773 l 0.01,0.004 0.008,0.004 c 1.06596,0.60912 1.8772,1.42231 2.48633,2.48828 l 0.004,0.004 0.002,0.006 c 0.62071,1.0569 0.94162,2.24543 0.95898,3.63477 v 5.4414 1.57023"
         id="path879" />
      <path
         style="opacity:1;fill:none;fill-opacity:1;stroke:#ffffff;stroke-width:2.11666668;stroke-linecap:round;stroke-linejoin:round;stroke-miterlimit:4"
         d="m 113.57801,157.67196 v 14.0268 l -0.005,-8.01907 c 0.0428,-0.88619 0.53185,-2.50477 1.22972,-3.54883 0.52463,-0.78489 1.25163,-1.48131 2.04297,-1.89453 0.79208,-0.41361 1.76898,-0.59961 2.76368,-0.59961 0.75583,0 1.60539,0.20793 1.80273,0.31055"
         id="path895" />
      <path
         style="opacity:1;fill:none;fill-opacity:1;stroke:#ffffff;stroke-width:2.11666668;stroke-linecap:round;stroke-linejoin:round;stroke-miterlimit:4"
         d="m 131.73828,157.58789 c -1.28733,0 -2.49893,0.30771 -3.55859,0.92969 -1.05,0.61629 -1.90425,1.49622 -2.51172,2.57617 l -0.002,0.004 -0.002,0.002 c -0.59653,1.07835 -0.88672,2.30902 -0.88672,3.62305 0,1.31402 0.29019,2.54469 0.88672,3.62304 l 0.006,0.008 0.004,0.008 c 0.6089,1.05993 1.46097,1.92381 2.50586,2.53711 1.05966,0.62198 2.27126,0.93164 3.55859,0.93164 1.28732,0 2.50088,-0.30966 3.56055,-0.93164 1.04788,-0.61507 1.89595,-1.48551 2.48633,-2.55274 0.59653,-1.07835 0.88672,-2.30902 0.88672,-3.62304 0,-1.3112 -0.29084,-2.53856 -0.88477,-3.61524 -0.58876,-1.0859 -1.43609,-1.97226 -2.48828,-2.58984 -1.05967,-0.62198 -2.27323,-0.92969 -3.56055,-0.92969 z"
         id="path907" />
      <path
         id="path907-3"
         style="opacity:1;fill:none;fill-opacity:1;stroke:#ffffff;stroke-width:2.11666668;stroke-linecap:round;stroke-linejoin:round;stroke-miterlimit:4"
         d="m 158.25031,164.57792 c 0,-1.3112 -0.29084,-2.53856 -0.88477,-3.61524 -0.58876,-1.0859 -1.43609,-1.97226 -2.48828,-2.58984 -1.05967,-0.62198 -2.27323,-0.92969 -3.56055,-0.92969 l -1.4e-4,-5.1e-4 c -1.28733,0 -2.49893,0.30771 -3.55859,0.92969 -1.05,0.61629 -1.90425,1.49622 -2.51172,2.57617 l -0.002,0.004 -0.002,0.002 c -0.59653,1.07835 -0.88672,2.30902 -0.88672,3.62305 0,1.31402 0.29019,2.54469 0.88672,3.62304 l 0.006,0.008 0.004,0.008 c 0.6089,1.05993 1.46097,1.92381 2.50586,2.53711 1.05966,0.62198 2.27126,0.93164 3.55859,0.93164 1.28732,0 2.50088,-0.30966 3.56055,-0.93164 1.04788,-0.61507 1.89595,-1.48551 2.48633,-2.55274 0.59653,-1.07835 0.88672,-2.30902 0.88672,-3.62304 l -0.0316,-5.77323 v -7.625" />
      <path
         id="path1009"
         style="opacity:1;fill:none;fill-opacity:1;stroke:#ffffff;stroke-width:2.11666668;stroke-linecap:round;stroke-linejoin:round;stroke-miterlimit:4"
         d="m 164.68945,157.77344 h 10.71289 l -10.59765,13.86914 h 10.71484" />
      <path
         id="path1024"
         style="opacity:1;fill:none;fill-opacity:1;stroke:#ffffff;stroke-width:2.11666668;stroke-linecap:round;stroke-linejoin:round;stroke-miterlimit:4"
         d="m 181.99805,157.70404 v 13.97487 m -0.0539,-19.46055 v 0.0257" />
      <path
         style="opacity:1;fill:none;fill-opacity:1;stroke:#ffffff;stroke-width:2.11666668;stroke-linecap:round;stroke-linejoin:round;stroke-miterlimit:4"
         d="m 189.38133,164.387 h 12.24414 c -0.007,-1.33826 -0.26205,-2.4897 -0.76953,-3.48828 -0.51412,-1.01164 -1.2099,-1.75733 -2.14063,-2.3125 l -0.01,-0.006 -0.01,-0.006 c -0.89566,-0.55979 -1.94929,-0.84961 -3.25,-0.84961 -1.31749,0 -2.41581,0.2983 -3.37695,0.88477 -0.97873,0.59718 -1.73161,1.39514 -2.30469,2.45703 -0.54266,1.02173 -0.82617,2.22188 -0.82617,3.65625 0,1.40398 0.29714,2.59374 0.875,3.63672 0.60403,1.05517 1.39939,1.85549 2.43164,2.45703 1.04259,0.57728 2.23151,0.87695 3.63477,0.87695 0.76788,0 1.58751,-0.14796 2.4707,-0.45898 0.88553,-0.3314 1.58213,-0.7289 2.09961,-1.16797"
         id="path1035" />
      <path
         id="path1049"
         style="opacity:1;fill:none;fill-opacity:1;stroke:#ffffff;stroke-width:2.11666668;stroke-linecap:round;stroke-linejoin:round;stroke-miterlimit:4"
         d="m 207.66992,157.93555 v 14.67187 c 0,1.15352 -0.24652,2.12115 -0.72851,2.97266 -0.48813,0.86236 -1.13375,1.50797 -1.9961,1.99609 -0.8515,0.48199 -1.82108,0.73047 -2.97461,0.73047 m 5.61756,-26.08828 v 0.0286" />
    </g>
  </g>
</svg>
